<svg width="60" height="60" viewBox="0 0 60 60" fill="none" xmlns="http://www.w3.org/2000/svg">
<rect width="60" height="60" rx="3" fill="#2D5BFF"/>
<path d="M20.8994 20.2999L39.7044 26.5679C39.8017 26.6002 39.8868 26.6616 39.948 26.7438C40.0093 26.8261 40.0438 26.9251 40.0468 27.0276C40.0499 27.1301 40.0214 27.2311 39.9651 27.3168C39.9089 27.4026 39.8276 27.4689 39.7324 27.5069L30.9994 30.9999L26.5744 39.8499C26.5293 39.94 26.4581 40.0145 26.3701 40.0634C26.2821 40.1124 26.1813 40.1336 26.081 40.1243C25.9806 40.115 25.8855 40.0756 25.8079 40.0113C25.7304 39.947 25.6741 39.8608 25.6464 39.7639L20.2594 20.9109C20.2344 20.8233 20.2339 20.7306 20.2578 20.6427C20.2817 20.5548 20.3291 20.4752 20.395 20.4123C20.4608 20.3494 20.5426 20.3057 20.6315 20.2859C20.7204 20.2661 20.813 20.2709 20.8994 20.2999Z" fill="white"/>
</svg>
