<svg width="21" height="20" viewBox="0 0 21 20" fill="none" xmlns="http://www.w3.org/2000/svg">
<path d="M15.5007 18.3334H5.50065C5.05862 18.3334 4.6347 18.1578 4.32214 17.8453C4.00958 17.5327 3.83398 17.1088 3.83398 16.6667V3.33342C3.83398 2.89139 4.00958 2.46746 4.32214 2.1549C4.6347 1.84234 5.05862 1.66675 5.50065 1.66675H11.334C11.3415 1.66577 11.349 1.66577 11.3565 1.66675H11.3615C11.3694 1.66921 11.3775 1.67088 11.3857 1.67175C11.459 1.67675 11.5315 1.69092 11.6015 1.71425H11.6365C11.6519 1.72501 11.6664 1.737 11.6798 1.75008C11.7706 1.79045 11.8533 1.84692 11.924 1.91675L16.924 6.91675C16.9938 6.9874 17.0503 7.07013 17.0907 7.16092C17.0979 7.17893 17.1043 7.19729 17.1098 7.21592L17.1182 7.23925C17.1415 7.30842 17.1548 7.38092 17.159 7.45425C17.1597 7.46255 17.1617 7.4707 17.1648 7.47842V7.48342C17.1662 7.48888 17.167 7.49446 17.1673 7.50008V16.6667C17.1673 17.1088 16.9917 17.5327 16.6792 17.8453C16.3666 18.1578 15.9427 18.3334 15.5007 18.3334ZM11.334 3.33342V7.50008H15.5007L11.334 3.33342Z" fill="#0B1013"/>
</svg>
