<svg width="148" height="40" viewBox="0 0 148 40" fill="none" xmlns="http://www.w3.org/2000/svg">
<path d="M56 21.8291V19.7694L62.7161 11.5304L62.7494 11.885L62.2495 11.2096L62.5828 11.4798H56.2V9.50445H65.3325V11.5642L58.5998 19.7863L58.5498 19.398L59.0997 20.1577L58.6998 19.8538H65.4159V21.8291H56Z" fill="black"/>
<path d="M74.6049 18.0473V15.9707H76.9714C77.4491 15.9707 77.8491 15.875 78.1713 15.6837C78.5046 15.4923 78.7546 15.2278 78.9212 14.8902C79.099 14.5525 79.1879 14.1642 79.1879 13.7252C79.1879 13.2863 79.099 12.898 78.9212 12.5603C78.7546 12.2226 78.5046 11.9638 78.1713 11.7837C77.8491 11.5923 77.4491 11.4967 76.9714 11.4967H74.6049V9.42003H76.7714C77.7935 9.42003 78.6601 9.58886 79.3712 9.92653C80.0934 10.2642 80.6433 10.7482 81.0211 11.3785C81.3988 11.9975 81.5877 12.7348 81.5877 13.5902V13.8603C81.5877 14.7157 81.3988 15.4586 81.0211 16.0889C80.6433 16.7079 80.0934 17.1919 79.3712 17.5408C78.6601 17.8785 77.7935 18.0473 76.7714 18.0473H74.6049ZM72.5718 21.8291V9.42003H74.9382V21.8291H72.5718Z" fill="black"/>
<path d="M86.4617 21.8291L90.6114 9.50445H94.4777L98.744 21.8291H96.3109L92.6945 11.1421L93.5445 11.5135H91.4613L92.3279 11.1421L88.8282 21.8291H86.4617ZM89.3615 18.5538L90.1114 16.5278H95.0443L95.7776 18.5538H89.3615Z" fill="black"/>
<path d="M106.925 21.8291V11.2772H109.292V21.8291H106.925ZM103.409 11.6148V9.50445H112.808V11.6148H103.409Z" fill="black"/>
<path d="M124.821 22.1499C123.722 22.1499 122.777 21.9529 121.988 21.559C121.2 21.1651 120.555 20.6529 120.055 20.0226C119.566 19.3923 119.205 18.7057 118.972 17.9629C118.739 17.22 118.622 16.5053 118.622 15.8187V15.4473C118.622 14.6819 118.739 13.9278 118.972 13.185C119.216 12.4421 119.589 11.7668 120.089 11.159C120.589 10.5512 121.222 10.0672 121.988 9.70705C122.766 9.33562 123.683 9.1499 124.738 9.1499C125.838 9.1499 126.794 9.3525 127.605 9.75769C128.427 10.1516 129.082 10.7144 129.571 11.446C130.06 12.1664 130.354 13.0105 130.454 13.9785H128.071C127.982 13.4157 127.782 12.943 127.471 12.5603C127.171 12.1664 126.788 11.8737 126.321 11.6824C125.855 11.4798 125.327 11.3785 124.738 11.3785C124.138 11.3785 123.605 11.4854 123.138 11.6993C122.672 11.9019 122.283 12.1945 121.972 12.5772C121.661 12.9599 121.422 13.4101 121.255 13.9278C121.1 14.4456 121.022 15.0196 121.022 15.6499C121.022 16.2577 121.1 16.8205 121.255 17.3382C121.422 17.856 121.666 18.3118 121.988 18.7057C122.311 19.0884 122.705 19.3867 123.172 19.6006C123.649 19.8144 124.199 19.9213 124.821 19.9213C125.733 19.9213 126.499 19.6962 127.121 19.246C127.755 18.7845 128.138 18.143 128.271 17.3213H130.654C130.543 18.1993 130.249 19.004 129.771 19.7356C129.293 20.4672 128.638 21.0525 127.805 21.4915C126.971 21.9304 125.977 22.1499 124.821 22.1499Z" fill="black"/>
<path d="M145.634 21.8291V9.50445H148V21.8291H145.634ZM137.651 21.8291V9.50445H140.017V21.8291H137.651ZM139.584 16.7135V14.6031H146.067V16.7135H139.584Z" fill="black"/>
<path d="M57.5137 31.389V26.9504H58.0182V31.389H57.5137ZM56 27.0744V26.624H59.5319V27.0744H56Z" fill="black"/>
<path d="M63.8764 31.389V26.624H64.3809V31.389H63.8764ZM64.2614 31.389V30.9386H66.6846V31.389H64.2614ZM64.2614 29.1893V28.7454H66.4589V29.1893H64.2614ZM64.2614 27.0744V26.624H66.6116V27.0744H64.2614Z" fill="black"/>
<path d="M73.3049 31.5C72.8711 31.5 72.4993 31.426 72.1895 31.2781C71.8841 31.1258 71.6341 30.9278 71.4393 30.6841C71.249 30.4404 71.1096 30.1771 71.0211 29.8943C70.9325 29.607 70.8883 29.3285 70.8883 29.0587V28.9347C70.8883 28.6432 70.9325 28.3538 71.0211 28.0666C71.114 27.775 71.2556 27.5117 71.446 27.2768C71.6407 27.0418 71.8885 26.8547 72.1895 26.7154C72.4905 26.5718 72.8468 26.5 73.2584 26.5C73.6744 26.5 74.0329 26.5718 74.3339 26.7154C74.6393 26.859 74.8827 27.0614 75.0642 27.3225C75.2456 27.5792 75.3563 27.8838 75.3961 28.2363H74.8849C74.8495 27.9534 74.7566 27.7185 74.6061 27.5313C74.4556 27.3399 74.2631 27.1963 74.0285 27.1005C73.7983 27.0048 73.5416 26.9569 73.2584 26.9569C72.953 26.9569 72.683 27.0113 72.4484 27.1201C72.2183 27.2245 72.0258 27.3725 71.8708 27.564C71.7159 27.7511 71.5986 27.9687 71.519 28.2167C71.4393 28.4604 71.3995 28.7215 71.3995 29C71.3995 29.2654 71.4371 29.52 71.5123 29.7637C71.592 30.0074 71.7115 30.2272 71.8708 30.423C72.0302 30.6144 72.2293 30.7668 72.4683 30.8799C72.7074 30.9887 72.9862 31.0431 73.3049 31.0431C73.7475 31.0431 74.1192 30.9343 74.4202 30.7167C74.7212 30.4948 74.9071 30.1771 74.9779 29.7637H75.4891C75.4404 30.0901 75.3253 30.386 75.1438 30.6514C74.9624 30.9125 74.7167 31.1192 74.4069 31.2715C74.1015 31.4238 73.7342 31.5 73.3049 31.5Z" fill="black"/>
<path d="M83.2463 31.389V26.624H83.7509V31.389H83.2463ZM79.9136 31.389V26.624H80.4181V31.389H79.9136ZM80.3053 29.248V28.8042H83.3592V29.248H80.3053Z" fill="black"/>
<path d="M88.6648 31.389V26.624H89.5079L92.1635 30.9386H92.3759L92.2432 31.0431V26.624H92.7278V31.389H91.878L89.2224 27.0744H89.01L89.1428 26.97V31.389H88.6648Z" fill="black"/>
<path d="M99.7673 31.5C99.3469 31.5 98.9817 31.426 98.6719 31.2781C98.3621 31.1301 98.1054 30.9343 97.9018 30.6906C97.6982 30.4469 97.5455 30.1815 97.4437 29.8943C97.3419 29.607 97.291 29.3264 97.291 29.0522V28.9347C97.291 28.6432 97.3419 28.3538 97.4437 28.0666C97.5499 27.775 97.7071 27.5117 97.9151 27.2768C98.1231 27.0418 98.382 26.8547 98.6918 26.7154C99.0017 26.5718 99.3602 26.5 99.7673 26.5C100.179 26.5 100.537 26.5718 100.843 26.7154C101.153 26.8547 101.412 27.0418 101.62 27.2768C101.828 27.5117 101.983 27.775 102.084 28.0666C102.191 28.3538 102.244 28.6432 102.244 28.9347V29.0587C102.244 29.3329 102.193 29.6136 102.091 29.9008C101.994 30.1836 101.841 30.4469 101.633 30.6906C101.429 30.9343 101.173 31.1301 100.863 31.2781C100.553 31.426 100.188 31.5 99.7673 31.5ZM99.7673 31.0431C100.077 31.0431 100.354 30.9887 100.597 30.8799C100.841 30.7668 101.046 30.6144 101.215 30.423C101.383 30.2272 101.511 30.0074 101.6 29.7637C101.688 29.52 101.732 29.2654 101.732 29C101.732 28.7215 101.688 28.4604 101.6 28.2167C101.511 27.973 101.381 27.7576 101.208 27.5705C101.04 27.379 100.834 27.2289 100.591 27.1201C100.347 27.0113 100.073 26.9569 99.7673 26.9569C99.4664 26.9569 99.1942 27.0113 98.9508 27.1201C98.7073 27.2289 98.4993 27.379 98.3267 27.5705C98.1585 27.7576 98.0279 27.973 97.935 28.2167C97.8465 28.4604 97.8022 28.7215 97.8022 29C97.8022 29.2654 97.8465 29.52 97.935 29.7637C98.0235 30.0074 98.1519 30.2272 98.3201 30.423C98.4882 30.6144 98.6941 30.7668 98.9375 30.8799C99.1853 30.9887 99.462 31.0431 99.7673 31.0431Z" fill="black"/>
<path d="M106.803 31.389V26.624H107.307V31.389H106.803ZM107.174 31.389V30.9386H109.451V31.389H107.174Z" fill="black"/>
<path d="M115.837 31.5C115.416 31.5 115.051 31.426 114.742 31.2781C114.432 31.1301 114.175 30.9343 113.971 30.6906C113.768 30.4469 113.615 30.1815 113.513 29.8943C113.412 29.607 113.361 29.3264 113.361 29.0522V28.9347C113.361 28.6432 113.412 28.3538 113.513 28.0666C113.62 27.775 113.777 27.5117 113.985 27.2768C114.193 27.0418 114.452 26.8547 114.761 26.7154C115.071 26.5718 115.43 26.5 115.837 26.5C116.249 26.5 116.607 26.5718 116.912 26.7154C117.222 26.8547 117.481 27.0418 117.689 27.2768C117.897 27.5117 118.052 27.775 118.154 28.0666C118.26 28.3538 118.313 28.6432 118.313 28.9347V29.0587C118.313 29.3329 118.262 29.6136 118.161 29.9008C118.063 30.1836 117.911 30.4469 117.702 30.6906C117.499 30.9343 117.242 31.1301 116.932 31.2781C116.623 31.426 116.257 31.5 115.837 31.5ZM115.837 31.0431C116.147 31.0431 116.423 30.9887 116.667 30.8799C116.91 30.7668 117.116 30.6144 117.284 30.423C117.452 30.2272 117.581 30.0074 117.669 29.7637C117.758 29.52 117.802 29.2654 117.802 29C117.802 28.7215 117.758 28.4604 117.669 28.2167C117.581 27.973 117.45 27.7576 117.278 27.5705C117.109 27.379 116.904 27.2289 116.66 27.1201C116.417 27.0113 116.142 26.9569 115.837 26.9569C115.536 26.9569 115.264 27.0113 115.02 27.1201C114.777 27.2289 114.569 27.379 114.396 27.5705C114.228 27.7576 114.098 27.973 114.005 28.2167C113.916 28.4604 113.872 28.7215 113.872 29C113.872 29.2654 113.916 29.52 114.005 29.7637C114.093 30.0074 114.221 30.2272 114.39 30.423C114.558 30.6144 114.764 30.7668 115.007 30.8799C115.255 30.9887 115.532 31.0431 115.837 31.0431Z" fill="black"/>
<path d="M124.99 31.5C124.592 31.5 124.238 31.4347 123.928 31.3042C123.622 31.1736 123.366 30.9952 123.158 30.7689C122.95 30.5383 122.79 30.275 122.68 29.9791C122.573 29.6789 122.52 29.3634 122.52 29.0326V28.9151C122.52 28.6105 122.571 28.3146 122.673 28.0274C122.779 27.7402 122.932 27.4813 123.131 27.2507C123.33 27.02 123.578 26.8372 123.875 26.7023C124.171 26.5674 124.508 26.5 124.884 26.5C125.278 26.5 125.627 26.574 125.933 26.7219C126.238 26.8655 126.484 27.0679 126.67 27.329C126.86 27.5901 126.971 27.8925 127.002 28.2363H126.49C126.455 27.9578 126.36 27.7228 126.205 27.5313C126.054 27.3399 125.864 27.1963 125.634 27.1005C125.404 27.0048 125.154 26.9569 124.884 26.9569C124.6 26.9569 124.344 27.007 124.114 27.107C123.883 27.2071 123.689 27.3486 123.529 27.5313C123.37 27.7141 123.246 27.9295 123.158 28.1775C123.074 28.4212 123.031 28.6889 123.031 28.9804C123.031 29.2894 123.076 29.5722 123.164 29.829C123.253 30.0814 123.381 30.299 123.549 30.4817C123.718 30.6645 123.921 30.8059 124.16 30.906C124.404 31.0061 124.68 31.0561 124.99 31.0561C125.371 31.0561 125.705 30.9843 125.992 30.8407C126.285 30.6928 126.51 30.4991 126.67 30.2598L126.47 30.8734V29.4634H126.948V30.6514C126.74 30.9169 126.47 31.1258 126.139 31.2781C125.807 31.426 125.424 31.5 124.99 31.5ZM124.811 29.5679V29.1501H127.38V29.5679H124.811Z" fill="black"/>
<path d="M131.805 31.389V26.624H132.31V31.389H131.805Z" fill="black"/>
<path d="M137.237 31.389V26.624H137.741V31.389H137.237ZM137.622 31.389V30.9386H140.045V31.389H137.622ZM137.622 29.1893V28.7454H139.819V29.1893H137.622ZM137.622 27.0744V26.624H139.972V27.0744H137.622Z" fill="black"/>
<path d="M146.134 31.5C145.727 31.5 145.384 31.4369 145.105 31.3107C144.827 31.1802 144.614 31.0017 144.468 30.7755C144.326 30.5448 144.256 30.2859 144.256 29.9987H144.76C144.76 30.1815 144.804 30.3534 144.893 30.5144C144.986 30.671 145.132 30.7994 145.331 30.8995C145.535 30.9952 145.803 31.0431 146.134 31.0431C146.44 31.0431 146.692 30.9996 146.891 30.9125C147.095 30.8255 147.245 30.708 147.343 30.5601C147.445 30.4121 147.495 30.2467 147.495 30.064C147.495 29.8333 147.402 29.6419 147.217 29.4896C147.035 29.3329 146.761 29.2393 146.393 29.2089L145.836 29.1567C145.42 29.1218 145.088 28.9956 144.84 28.7781C144.596 28.5561 144.475 28.2646 144.475 27.9034C144.475 27.6292 144.541 27.3877 144.674 27.1789C144.807 26.97 144.995 26.8046 145.238 26.6828C145.486 26.5609 145.783 26.5 146.128 26.5C146.477 26.5 146.776 26.5631 147.024 26.6893C147.276 26.8111 147.469 26.9809 147.602 27.1984C147.734 27.416 147.801 27.6684 147.801 27.9556H147.296C147.296 27.7815 147.256 27.6184 147.177 27.4661C147.097 27.3138 146.971 27.1919 146.798 27.1005C146.626 27.0048 146.402 26.9569 146.128 26.9569C145.867 26.9569 145.65 27.0004 145.477 27.0875C145.309 27.1745 145.183 27.2898 145.099 27.4334C145.019 27.577 144.979 27.7337 144.979 27.9034C144.979 28.1166 145.057 28.2972 145.212 28.4452C145.367 28.5931 145.59 28.678 145.882 28.6997L146.44 28.752C146.767 28.7781 147.046 28.8499 147.276 28.9674C147.511 29.0805 147.69 29.2306 147.814 29.4178C147.938 29.6005 148 29.8159 148 30.064C148 30.3425 147.923 30.5905 147.768 30.8081C147.617 31.0257 147.403 31.1954 147.124 31.3172C146.845 31.4391 146.515 31.5 146.134 31.5Z" fill="black"/>
<rect width="40" height="40" rx="4" fill="#0B1013"/>
<path fill-rule="evenodd" clip-rule="evenodd" d="M26.4167 9H9V12.8261H10.8333V10.913H24.5834V11.86L10.8333 23.4243L9 25.0313V31H10.8333V25.9974L24.5834 14.4235L26.4167 12.8261V9ZM13.5833 26.9443V31H31V27.1739H29.1667V29.087H15.4166V27.9104L29.1667 16.3365L31 14.7391V9H29.1667V13.773L15.4166 25.3374L13.5833 26.9443Z" fill="white"/>
</svg>
