<svg width="24" height="24" viewBox="0 0 24 24" fill="none" xmlns="http://www.w3.org/2000/svg">
<path d="M2.89937 2.29993L21.7044 8.56793C21.8017 8.60019 21.8868 8.6616 21.948 8.74383C22.0093 8.82606 22.0438 8.92514 22.0468 9.02763C22.0499 9.13013 22.0214 9.23108 21.9651 9.31682C21.9089 9.40255 21.8276 9.46892 21.7324 9.50693L12.9994 12.9999L8.57437 21.8499C8.52934 21.94 8.45814 22.0145 8.3701 22.0634C8.28205 22.1124 8.18127 22.1336 8.08096 22.1243C7.98065 22.115 7.88548 22.0756 7.80793 22.0113C7.73038 21.947 7.67407 21.8608 7.64637 21.7639L2.25937 2.91093C2.23442 2.82334 2.23386 2.7306 2.25776 2.64272C2.28165 2.55484 2.3291 2.47516 2.39497 2.41227C2.46084 2.34939 2.54264 2.30568 2.63153 2.28589C2.72042 2.26609 2.81303 2.27094 2.89937 2.29993Z" fill="white"/>
</svg>
