<svg width="60" height="60" viewBox="0 0 60 60" fill="none" xmlns="http://www.w3.org/2000/svg">
<rect width="60" height="60" rx="3" fill="#2D5BFF"/>
<path d="M30 18.75C27.6139 18.7528 25.3264 19.6849 23.6392 21.342C21.9519 22.9991 21.0028 25.2458 21 27.5893C20.9972 29.5044 21.6341 31.3675 22.8131 32.8929C22.8131 32.8929 23.0586 33.2103 23.0986 33.2561L30 41.25L36.9046 33.2521C36.9406 33.2095 37.1869 32.8929 37.1869 32.8929L37.1877 32.8904C38.3661 31.3658 39.0028 29.5035 39 27.5893C38.9972 25.2458 38.0481 22.9991 36.3608 21.342C34.6736 19.6849 32.3861 18.7528 30 18.75Z" fill="white"/>
</svg>
