<svg width="20" height="20" viewBox="0 0 20 20" fill="none" xmlns="http://www.w3.org/2000/svg">
<path fill-rule="evenodd" clip-rule="evenodd" d="M16.8748 10.4749V9.51864L18.0748 8.46864C18.296 8.27367 18.4412 8.00678 18.4846 7.71514C18.5281 7.4235 18.467 7.12588 18.3123 6.87489L16.8373 4.37489C16.7277 4.18505 16.5701 4.02738 16.3803 3.91768C16.1905 3.80798 15.9752 3.75011 15.756 3.74989C15.6202 3.74885 15.4851 3.76996 15.356 3.81239L13.8373 4.32489C13.5751 4.15064 13.3016 3.99405 13.0185 3.85614L12.6998 2.28114C12.6426 1.99339 12.4861 1.73491 12.2576 1.55095C12.0291 1.36699 11.7431 1.26927 11.4498 1.27489H8.52479C8.23148 1.26927 7.94553 1.36699 7.71701 1.55095C7.48848 1.73491 7.33194 1.99339 7.27479 2.28114L6.95604 3.85614C6.671 3.99401 6.3954 4.15061 6.13104 4.32489L4.64354 3.78739C4.5131 3.7534 4.37802 3.74074 4.24354 3.74989C4.02434 3.75011 3.80905 3.80798 3.61927 3.91768C3.42949 4.02738 3.27189 4.18505 3.16229 4.37489L1.68729 6.87489C1.54141 7.12551 1.4872 7.41905 1.53395 7.70524C1.5807 7.99143 1.72549 8.25247 1.94354 8.44364L3.12479 9.52489V10.4811L1.94354 11.5311C1.71933 11.7236 1.57058 11.9893 1.52367 12.2811C1.47676 12.5729 1.53473 12.8718 1.68729 13.1249L3.16229 15.6249C3.27189 15.8147 3.42949 15.9724 3.61927 16.0821C3.80905 16.1918 4.02434 16.2497 4.24354 16.2499C4.37939 16.2509 4.51449 16.2298 4.64354 16.1874L6.16229 15.6749C6.4245 15.8491 6.69803 16.0057 6.98104 16.1436L7.29979 17.7186C7.35694 18.0064 7.51348 18.2649 7.74201 18.4488C7.97053 18.6328 8.25648 18.7305 8.54979 18.7249H11.4998C11.7931 18.7305 12.0791 18.6328 12.3076 18.4488C12.5361 18.2649 12.6926 18.0064 12.7498 17.7186L13.0685 16.1436C13.3536 16.0058 13.6292 15.8492 13.8935 15.6749L15.406 16.1874C15.5351 16.2298 15.6702 16.2509 15.806 16.2499C16.0252 16.2497 16.2405 16.1918 16.4303 16.0821C16.6201 15.9724 16.7777 15.8147 16.8873 15.6249L18.3123 13.1249C18.4582 12.8743 18.5124 12.5807 18.4656 12.2945C18.4189 12.0083 18.2741 11.7473 18.056 11.5561L16.8748 10.4749ZM7.9164 13.1179C8.53309 13.53 9.25811 13.7499 9.99979 13.7499C10.4936 13.7549 10.9835 13.6613 11.4408 13.4747C11.898 13.288 12.3134 13.0119 12.6626 12.6627C13.0118 12.3135 13.2879 11.8981 13.4746 11.4409C13.6612 10.9836 13.7548 10.4937 13.7498 9.99989C13.7498 9.25821 13.5299 8.53318 13.1178 7.9165C12.7057 7.29982 12.1201 6.81917 11.4349 6.53534C10.7496 6.25151 9.99563 6.17725 9.2682 6.32194C8.54077 6.46664 7.87259 6.82379 7.34814 7.34824C6.82369 7.87268 6.46654 8.54087 6.32185 9.2683C6.17715 9.99573 6.25141 10.7497 6.53524 11.435C6.81907 12.1202 7.29972 12.7058 7.9164 13.1179Z" fill="#0B1013"/>
</svg>
